<?xml version="1.0" encoding="utf-8"?>
<!-- Generator: Adobe Illustrator 16.0.0, SVG Export Plug-In . SVG Version: 6.00 Build 0)  -->
<!DOCTYPE svg PUBLIC "-//W3C//DTD SVG 1.1//EN" "http://www.w3.org/Graphics/SVG/1.1/DTD/svg11.dtd">
<svg version="1.1" id="Layer_1" xmlns="http://www.w3.org/2000/svg" xmlns:xlink="http://www.w3.org/1999/xlink" x="0px" y="0px"
	 width="48px" height="48px" viewBox="0 0 48 48" enable-background="new 0 0 48 48" xml:space="preserve">
<path d="M24.805,43.648L24,44l-0.804-0.352C12.862,37.312,2,22.893,2,14.884C2.035,8.326,7.404,3.002,14,3.002
	c4.169,0,7.849,2.128,10,5.349c2.15-3.221,5.831-5.349,10-5.349c6.596,0,11.965,5.324,12,11.882
	C46,22.893,35.139,37.312,24.805,43.648z"/>
<path fill="#FFFFFF" stroke="#000000" stroke-miterlimit="10" d="M34,4.993c-3.354,0-6.469,1.667-8.335,4.46L24,11.946l-1.665-2.494
	C20.469,6.66,17.354,4.993,14,4.993c-5.484,0-9.971,4.442-10,9.891c0,7.064,10.234,20.808,20,26.917
	c9.766-6.109,20-19.852,20-26.907C43.971,9.435,39.484,4.993,34,4.993z"/>
</svg>
