<svg version="1" xmlns="http://www.w3.org/2000/svg" width="666.667" height="666.667" viewBox="0 0 500.000000 500.000000"><path d="M226 .6c-35.8 4.3-63.4 12.5-92 27.5C69.7 61.8 22.3 122.8 6.1 193 1.4 213.7.5 222.4.5 250c0 28.4.9 37.3 6.1 58.8 12.7 52.3 41.9 99.1 83.4 133.6C135.1 480 190.7 500 250 500c57.2 0 110.6-18.5 155.5-53.8 10.1-8 30.5-28.2 38.9-38.7 42.5-52.8 61.9-119.8 54.1-186.9-12-102.3-86-187.1-186-213.1-20.4-5.3-32.2-6.7-58.5-7-13.5-.2-26.1-.1-28 .1zm58 9.9c74.8 11.2 138.9 55 176.3 120.5 15.3 26.7 25.4 57.3 29.8 90 1.7 12.2 1.7 45.8 0 58-5.7 42.4-20.2 79-44.5 112.8l-6 8.3-2.3-11.5c-3.9-19.5-4.7-21.1-20.6-40.1C403 332 394 325.4 360.5 307c-9.3-5.1-19.5-11-22.5-13.2-5.5-3.8-28.9-14.8-31.6-14.8-1.9 0-1.8-.4 1-4.8 2.5-3.8 4.6-12.6 4.6-19.4 0-3 .7-4.7 3-7.1 1.7-1.8 3.7-5.5 4.5-8.3.9-3 2.8-6.3 4.6-8 4.1-3.9 7.9-11.5 7.9-15.9 0-4.1-1.2-6.9-4.6-10.5-2-2.2-2.3-3.6-2.5-12.5-.1-5.9.3-11.2 1-13 1-2.3.9-4.4 0-9.3-1-4.9-1-6.8-.1-8.3 1.6-2.6 1.5-8.4-.3-11.9-.8-1.6-1.2-4.1-.9-5.7.9-4.5-2.2-17.2-5.3-21.6-1.6-2.2-5.5-6.2-8.8-8.9-12.5-10.1-14.5-12-14.5-13.7 0-2.7-8.2-9.8-12.6-11-2.2-.6-8-1.1-13.1-1.1-5.2 0-9.5-.4-9.8-1-1-1.7-14.3-8-16.7-8-1.3 0-3.8.9-5.6 2-2.1 1.3-3.8 1.8-4.5 1.2-2.1-1.6-13.4.2-15.9 2.5-1.4 1.2-4.2 2.3-7.3 2.6-3.2.3-8.5 2.3-15.4 5.9-10.1 5-10.7 5.6-13.2 10.6-1.4 2.9-3.5 6.3-4.7 7.5-1.1 1.2-4.3 6.1-7.1 11-3.8 6.5-4.9 9.4-4.5 11.5.4 2.2-.5 3.8-5.1 8.9l-5.6 6.2 2.7 4.1c2.6 3.9 2.8 4.8 2.8 16.6.1 8.2.5 12.7 1.3 13.2 1.6 1 4.3 12.3 3.6 15.2-.3 1.4-2.1 3.9-3.9 5.6-2.9 2.7-3.4 3.9-3.4 7.6 0 6.6 2.6 13 7 17.3 2.2 2.2 4 4.4 4 5.1 0 2 5.1 12.8 7.1 15 1.1 1.2 2.5 5.2 3.4 9.6.8 4.1 3 11 5 15.3 1.9 4.3 3.4 7.9 3.3 8-2.2 1.3-17.1 7.4-19.3 7.9-5.7 1.4-25.4 12.8-28.1 16.3-2.6 3.5-7.6 6.4-20.4 11.7-10.8 4.6-19 10.5-30.6 22-10.6 10.6-19.4 21.7-23.8 30-2.4 4.5-2.6 5.9-2.6 17.7 0 7.2-.4 13-1 13.4-1.3.8-11.6-13.4-20.3-28-15.9-26.7-26.4-56.7-31.4-89.5-2.4-15.9-2.4-50.1 0-66 6.8-44.8 24.5-85.5 52-119.5 7.8-9.7 26.6-28.4 36.2-36.1C135.2 32.1 181 13.6 228.3 9c12.6-1.2 42.9-.4 55.7 1.5zm-35.1 79.7c2.5 1.2 6.1 3.2 8 4.5 2.9 2 4.5 2.3 12.5 2.1 5 0 10.2.2 11.6.7 3.4 1 7 4.5 7 6.7 0 2 5.5 7.3 14.8 14.3 7.3 5.5 11.1 10.7 12.2 16.6.7 3.7.5 4.2-1.6 5.1-1.3.6-2.4 1.5-2.4 1.9 0 .4 1.6 3 3.5 5.9 1.9 2.9 3.6 5.8 3.6 6.6.3 2.8.4 3.2 1.2 4 .4.5-.1 1.5-1.1 2.4-1.8 1.4-1.9 2.2-1.1 9 .6 5.7.5 7.9-.5 9.5-1 1.6-1.1 3.5-.4 8.5.5 3.6.7 9.1.3 12.2-.6 5.6-.5 5.7 3.5 9.6 2.2 2.2 4 4.3 4 4.7 0 2.2-3.7 8.4-7.5 12.7-2.8 3.1-4.7 6.3-5.1 8.6-.4 2.1-2 5.2-3.9 7.2-2.9 3.1-3.3 4.3-3.9 11.1-.9 10.5-1.8 13.1-7.7 22.1-2.9 4.3-5 8-4.8 8.2.2.2 3.3.9 6.9 1.5 8.6 1.7 26.9 9.5 35 15 3.6 2.4 14.9 9.1 25.2 14.7 22.2 12.2 28.1 15.9 37 23 6.2 5 19.1 19.6 26.4 29.8 3.6 5.1 6.7 15.7 9 30.7l1.5 10.4-12.3 12.1c-13.6 13.3-21.8 20.1-35.3 29.1-31.3 21-66.4 34.1-105.5 39.4-12.2 1.7-45.8 1.7-58 0-45.7-6.2-86.9-23.4-121.5-50.9-3.8-3.1-11.8-10.3-17.7-16.1L71 412.6v-17.3c0-15.7.2-17.8 2.1-21.6 5.8-11.6 25.6-33.4 37.8-41.6 3.5-2.4 10.4-6 15.5-8 10.8-4.5 15.8-7.5 20.7-12.7 3.5-3.7 16.1-10.4 30.9-16.4 13.9-5.6 16.6-7 18.4-9.4l1.9-2.5-4.6-10.3c-2.8-6-5.3-13.6-6.2-18.2-.9-4.8-2.2-8.8-3.4-10-2.1-2.2-7.1-12.3-7.1-14.3 0-.7-2-3.5-4.4-6.2-2.4-2.7-4.9-6.6-5.6-8.6-1-3.1-1-3.9.6-5.6.9-1 2.5-1.9 3.5-1.9 3.8 0 3.3-22-.6-28.5-.8-1.3-1.3-6.3-1.2-13.8 0-9.9-.3-12-1.8-13.7-1.7-1.9-1.7-2.1 1.7-6.2 4.7-5.8 7-10.5 6.3-12.9-.7-2.2 4-11.1 8.7-16.4 1.5-1.8 3.5-4.9 4.3-6.8 1.7-4.1 5.1-6.7 14-10.8 4.3-1.9 8.1-2.9 11.3-2.9 4.1 0 5.3-.5 7.7-3 2.5-2.6 3.4-3 6-2.4 1.6.4 3.5 1.3 4 2.1.9 1.3 1.8 1 6.1-1.5 2.7-1.7 5.3-3.1 5.8-3.1.5-.1 3 .9 5.5 2.1z"/></svg>