<?xml version="1.0" encoding="utf-8"?>
<!-- Generator: Adobe Illustrator 19.2.0, SVG Export Plug-In . SVG Version: 6.00 Build 0)  -->
<svg version="1.1" id="Layer_1" xmlns="http://www.w3.org/2000/svg" xmlns:xlink="http://www.w3.org/1999/xlink" x="0px" y="0px"
	 viewBox="0 0 24 24" style="enable-background:new 0 0 24 24;" xml:space="preserve">
<style type="text/css">
	.st0{fill:#FFFFFF;}
</style>
<path class="st0" d="M13.6,24c-0.3,0-0.5-0.2-0.5-0.5v-9.8c0-0.3,0.2-0.5,0.5-0.5h9.8c0.3,0,0.5,0.2,0.5,0.5v9.8
	c0,0.3-0.2,0.5-0.5,0.5H13.6z M10.4,24c0.3,0,0.5-0.2,0.5-0.5v-9.8c0-0.3-0.2-0.5-0.5-0.5H0.5c-0.3,0-0.5,0.2-0.5,0.5v9.8
	C0,23.8,0.2,24,0.5,24H10.4z M23.5,10.9c0.3,0,0.5-0.2,0.5-0.5V0.5C24,0.2,23.8,0,23.5,0h-9.8c-0.3,0-0.5,0.2-0.5,0.5v9.8
	c0,0.3,0.2,0.5,0.5,0.5H23.5z M10.4,10.9c0.3,0,0.5-0.2,0.5-0.5V0.5c0-0.3-0.2-0.5-0.5-0.5H0.5C0.2,0,0,0.2,0,0.5v9.8
	c0,0.3,0.2,0.5,0.5,0.5H10.4z"/>
</svg>
