<?xml version="1.0" encoding="utf-8"?>
<!-- Generator: Adobe Illustrator 19.2.0, SVG Export Plug-In . SVG Version: 6.00 Build 0)  -->
<svg version="1.1" id="Layer_1" xmlns="http://www.w3.org/2000/svg" xmlns:xlink="http://www.w3.org/1999/xlink" x="0px" y="0px"
	 viewBox="0 0 24 24" style="enable-background:new 0 0 24 24;" xml:space="preserve">
<style type="text/css">
	.st0{fill:#FFFFFF;}
</style>
<g>
	<g>
		<path class="st0" d="M23.2,17H0.8C0.3,17,0,17.4,0,17.8v3.4C0,21.7,0.3,22,0.8,22h22.5c0.4,0,0.8-0.3,0.8-0.8v-3.4
			C24,17.4,23.7,17,23.2,17z M23.2,9H0.8C0.3,9,0,9.4,0,9.8v3.4C0,13.7,0.3,14,0.8,14h22.5c0.4,0,0.8-0.3,0.8-0.8V9.8
			C24,9.4,23.7,9,23.2,9z M23.2,1H0.8C0.3,1,0,1.4,0,1.8v3.4C0,5.7,0.3,6,0.8,6h22.5C23.7,6,24,5.7,24,5.2V1.8C24,1.4,23.7,1,23.2,1
			z"/>
	</g>
</g>
</svg>
