<svg version="1.1" id="Layer_1" xmlns="http://www.w3.org/2000/svg" xmlns:xlink="http://www.w3.org/1999/xlink" x="0px" y="0px"
	 viewBox="0 0 302.7 462.7" style="enable-background:new 0 0 302.7 462.7;" xml:space="preserve">
<style type="text/css">
	.st0{
		fill:none;
		stroke:#000000;
		stroke-width:2;
		stroke-miterlimit:10;
		stroke-dasharray: 1200;
		stroke-dashoffset: 1200;
		animation: outlineDraw 3s ease-in-out infinite alternate
	}

	@keyframes outlineDraw {
		100%{
			stroke-dashoffset: 0;
		}
	}
</style>
<path class="st0" d="M8.6,462.2l-5.3-12.7c0,0-2-4,0-16.7c2-12.7,0.2-38-0.9-44.7s-1.6-48.7,0-58.7s-0.2-27.3-1-31.3s0-6.7,0-6.7
	s4.3-13.3,3.4-20.7c-0.9-7.3,0.2-30,0-34.7c-0.2-4.7,22.5-36.7,43.8-44.7s14.3-10.3,23.3-14.8s13-7.2,16.5-7.8s12-5.5,15.5-6.5
	s1.5-3.5,1.5-3.5s-6-11.8-6.5-14.8s-2-10.8-2-10.8l-3-3.2c0,0-4.2-8.5-4.2-9.8s-2.5-4.2-2.5-4.2l-3.5-3.2c0,0-4.8-9-2.2-12
	s4.8-3.2,4.8-3.2l0.5-2.8l0.5-5c0,0-2.2-7.8-2-8.8s-2-2.8-2-2.8l-0.8-4.8l0.8-4.2l0.5-3.5l-1-3l0.2-4.5c-1.5-1.2-3.5-4.5-3.5-4.5
	l3-3l2-3.2l2-2l2-3.8l-1.5-2.2c0,0,6.8-13,9.5-15.2s2.8-4.8,2.8-4.8l0.8-1.8l1.2-1.8l2.2-1.5c0,0,12.8-7.2,16.5-7.2s5,0,5,0l4-3.8
	c1.5-1.2,5.5,0,5.5,0l2-0.6l1.8,2.1l7.2-4.2h2.2c1.8,1,3.5,2.2,3.5,2.2l2.2,0.8l2.8,1.5l2,1.5l1.8,1.2l4.5,0.2
	c0,0,11.2-1.2,15.5,1.8s5,4.5,5,4.5v2.8c2.2,1.8,4.2,3.8,4.2,3.8l2,1.8c0,0,14.5,9.2,15.5,17.2s1,8,1,8s1.5-0.5,0,0s-2.8,1-2.8,1
	s6.2,8.5,4.8,11.8s-2.5,1.8-2.5,1.8l1,1.5l0.2,4.2l0.2,3.8l1.2,2.5l-1.5,3.8l-1,1.8c0,0,1.8,12,0.8,15.2s0.5,3.2,0.5,3.2
	s7,4.2,4.8,10.2s-4.8,7.8-4.8,7.8s-4.8,4.5-4.8,7.2s-1.2,4.2-1.2,4.2l-2.5,3.2l-2,1.5c0,0-0.5,14.2-2.8,18s-5.8,8.8-5.8,8.8l7.2,1.5
	c0,0,19.5,7.8,23.8,11.5s16,9.5,27.8,16c11.7,6.5,25,14.8,33,25.8s11.5,10,15.2,24s5.5,34,4.8,41.5s0.2,11.2,0.2,11.2s-0.6,1,0,2
	c0.6,1-2.2,7-2.2,7l-4.2,8l1.2,3.5l-1.5,8l0.8,4.5c0,0,2.2,12.2-0.2,14.8s-2.5,2.5-2.5,2.5s-0.2,36.8-2.8,44.2s-8.2,30-8.8,32.2
	s-1.8,13.5-3.2,20.2s-6,21.8-6,21.8l-1.2,2.2"/>
</svg>
