<svg id="Layer_1" xmlns="http://www.w3.org/2000/svg" viewBox="0 0 302.7 462.7"><style>.st0{fill:none;stroke:#fff;stroke-width:2;stroke-miterlimit:10;stroke-dasharray:1200;stroke-dashoffset:1200;animation:outlineDraw 3s ease-in-out infinite alternate}@keyframes outlineDraw{to{stroke-dashoffset:0}}</style><path class="st0" d="M8.6 462.2l-5.3-12.7s-2-4 0-16.7.2-38-.9-44.7-1.6-48.7 0-58.7-.2-27.3-1-31.3 0-6.7 0-6.7 4.3-13.3 3.4-20.7c-.9-7.3.2-30 0-34.7-.2-4.7 22.5-36.7 43.8-44.7s14.3-10.3 23.3-14.8 13-7.2 16.5-7.8 12-5.5 15.5-6.5 1.5-3.5 1.5-3.5-6-11.8-6.5-14.8-2-10.8-2-10.8l-3-3.2s-4.2-8.5-4.2-9.8-2.5-4.2-2.5-4.2l-3.5-3.2s-4.8-9-2.2-12 4.8-3.2 4.8-3.2l.5-2.8.5-5s-2.2-7.8-2-8.8-2-2.8-2-2.8l-.8-4.8.8-4.2.5-3.5-1-3 .2-4.5c-1.5-1.2-3.5-4.5-3.5-4.5l3-3 2-3.2 2-2 2-3.8-1.5-2.2s6.8-13 9.5-15.2 2.8-4.8 2.8-4.8l.8-1.8 1.2-1.8 2.2-1.5s12.8-7.2 16.5-7.2h5l4-3.8c1.5-1.2 5.5 0 5.5 0l2-.6 1.8 2.1 7.2-4.2h2.2c1.8 1 3.5 2.2 3.5 2.2l2.2.8 2.8 1.5 2 1.5 1.8 1.2 4.5.2s11.2-1.2 15.5 1.8 5 4.5 5 4.5v2.8c2.2 1.8 4.2 3.8 4.2 3.8l2 1.8s14.5 9.2 15.5 17.2l1 8s1.5-.5 0 0-2.8 1-2.8 1 6.2 8.5 4.8 11.8-2.5 1.8-2.5 1.8l1 1.5.2 4.2.2 3.8 1.2 2.5-1.5 3.8-1 1.8s1.8 12 .8 15.2.5 3.2.5 3.2 7 4.2 4.8 10.2-4.8 7.8-4.8 7.8-4.8 4.5-4.8 7.2-1.2 4.2-1.2 4.2l-2.5 3.2-2 1.5s-.5 14.2-2.8 18-5.8 8.8-5.8 8.8l7.2 1.5s19.5 7.8 23.8 11.5 16 9.5 27.8 16c11.7 6.5 25 14.8 33 25.8s11.5 10 15.2 24 5.5 34 4.8 41.5.2 11.2.2 11.2-.6 1 0 2-2.2 7-2.2 7l-4.2 8 1.2 3.5-1.5 8 .8 4.5s2.2 12.2-.2 14.8-2.5 2.5-2.5 2.5-.2 36.8-2.8 44.2-8.2 30-8.8 32.2-1.8 13.5-3.2 20.2-6 21.8-6 21.8l-1.2 2.2"/></svg>
