<?xml version="1.0" standalone="no"?>
<!DOCTYPE svg PUBLIC "-//W3C//DTD SVG 20010904//EN"
 "http://www.w3.org/TR/2001/REC-SVG-20010904/DTD/svg10.dtd">
<svg version="1.0" xmlns="http://www.w3.org/2000/svg"
 width="500.000000pt" height="500.000000pt" viewBox="0 0 500.000000 500.000000"
 preserveAspectRatio="xMidYMid meet">
<metadata>
Created by potrace 1.11, written by Peter Selinger 2001-2013
</metadata>
<g transform="translate(0.000000,500.000000) scale(0.100000,-0.100000)"
fill="#000000" stroke="none">
<path d="M2260 4994 c-358 -43 -634 -125 -920 -275 -643 -337 -1117 -947
-1279 -1649 -47 -207 -56 -294 -56 -570 0 -284 9 -373 61 -588 127 -523 419
-991 834 -1336 451 -376 1007 -576 1600 -576 572 0 1106 185 1555 538 101 80
305 282 389 387 425 528 619 1198 541 1869 -120 1023 -860 1871 -1860 2131
-204 53 -322 67 -585 70 -135 2 -261 1 -280 -1z m580 -99 c748 -112 1389 -550
1763 -1205 153 -267 254 -573 298 -900 17 -122 17 -458 0 -580 -57 -424 -202
-790 -445 -1128 l-60 -83 -23 115 c-39 195 -47 211 -206 401 -137 165 -227
231 -562 415 -93 51 -195 110 -225 132 -55 38 -289 148 -316 148 -19 0 -18 4
10 48 25 38 46 126 46 194 0 30 7 47 30 71 17 18 37 55 45 83 9 30 28 63 46
80 41 39 79 115 79 159 0 41 -12 69 -46 105 -20 22 -23 36 -25 125 -1 59 3
112 10 130 10 23 9 44 0 93 -10 49 -10 68 -1 83 16 26 15 84 -3 119 -8 16 -12
41 -9 57 9 45 -22 172 -53 216 -16 22 -55 62 -88 89 -125 101 -145 120 -145
137 0 27 -82 98 -126 110 -22 6 -80 11 -131 11 -52 0 -95 4 -98 10 -10 17
-143 80 -167 80 -13 0 -38 -9 -56 -20 -21 -13 -38 -18 -45 -12 -21 16 -134 -2
-159 -25 -14 -12 -42 -23 -73 -26 -32 -3 -85 -23 -154 -59 -101 -50 -107 -56
-132 -106 -14 -29 -35 -63 -47 -75 -11 -12 -43 -61 -71 -110 -38 -65 -49 -94
-45 -115 4 -22 -5 -38 -51 -89 l-56 -62 27 -41 c26 -39 28 -48 28 -166 1 -82
5 -127 13 -132 16 -10 43 -123 36 -152 -3 -14 -21 -39 -39 -56 -29 -27 -34
-39 -34 -76 0 -66 26 -130 70 -173 22 -22 40 -44 40 -51 0 -20 51 -128 71
-150 11 -12 25 -52 34 -96 8 -41 30 -110 50 -153 19 -43 34 -79 33 -80 -22
-13 -171 -74 -193 -79 -57 -14 -254 -128 -281 -163 -26 -35 -76 -64 -204 -117
-108 -46 -190 -105 -306 -220 -106 -106 -194 -217 -238 -300 -24 -45 -26 -59
-26 -177 0 -72 -4 -130 -10 -134 -13 -8 -116 134 -203 280 -159 267 -264 567
-314 895 -24 159 -24 501 0 660 68 448 245 855 520 1195 78 97 266 284 362
361 367 293 825 478 1298 524 126 12 429 4 557 -15z m-351 -797 c25 -12 61
-32 80 -45 29 -20 45 -23 125 -21 50 0 102 -2 116 -7 34 -10 70 -45 70 -67 0
-20 55 -73 148 -143 73 -55 111 -107 122 -166 7 -37 5 -42 -16 -51 -13 -6 -24
-15 -24 -19 0 -4 16 -30 35 -59 19 -29 36 -58 36 -66 3 -28 4 -32 12 -40 4 -5
-1 -15 -11 -24 -18 -14 -19 -22 -11 -90 6 -57 5 -79 -5 -95 -10 -16 -11 -35
-4 -85 5 -36 7 -91 3 -122 -6 -56 -5 -57 35 -96 22 -22 40 -43 40 -47 0 -22
-37 -84 -75 -127 -28 -31 -47 -63 -51 -86 -4 -21 -20 -52 -39 -72 -29 -31 -33
-43 -39 -111 -9 -105 -18 -131 -77 -221 -29 -43 -50 -80 -48 -82 2 -2 33 -9
69 -15 86 -17 269 -95 350 -150 36 -24 149 -91 252 -147 222 -122 281 -159
370 -230 62 -50 191 -196 264 -298 36 -51 67 -157 90 -307 l15 -104 -123 -121
c-136 -133 -218 -201 -353 -291 -313 -210 -664 -341 -1055 -394 -122 -17 -458
-17 -580 0 -457 62 -869 234 -1215 509 -38 31 -118 103 -177 161 l-108 105 0
173 c0 157 2 178 21 216 58 116 256 334 378 416 35 24 104 60 155 80 108 45
158 75 207 127 35 37 161 104 309 164 139 56 166 70 184 94 l19 25 -46 103
c-28 60 -53 136 -62 182 -9 48 -22 88 -34 100 -21 22 -71 123 -71 143 0 7 -20
35 -44 62 -24 27 -49 66 -56 86 -10 31 -10 39 6 56 9 10 25 19 35 19 38 0 33
220 -6 285 -8 13 -13 63 -12 138 0 99 -3 120 -18 137 -17 19 -17 21 17 62 47
58 70 105 63 129 -7 22 40 111 87 164 15 18 35 49 43 68 17 41 51 67 140 108
43 19 81 29 113 29 41 0 53 5 77 30 25 26 34 30 60 24 16 -4 35 -13 40 -21 9
-13 18 -10 61 15 27 17 53 31 58 31 5 1 30 -9 55 -21z"/>
</g>
</svg>
