<svg id="Layer_1" xmlns="http://www.w3.org/2000/svg" viewBox="0 0 386.2 130.1"><style>.text{fill:transparent;stroke-dasharray:500;stroke-dashoffset:500;stroke:#000;stroke-width:5px;-webkit-animation:text-fill 3s linear forwards;animation:text-fill 3s linear forwards}@keyframes text-fill{75%{stroke-dashoffset:0;fill:transparent}to{fill:#000}}</style><path class="text D" d="M32.8 0C38.1 0 42.9.4 47 1.3s7.8 2.1 10.9 3.6c3.1 1.6 5.8 3.4 7.9 5.6 2.2 2.2 3.9 4.5 5.2 7.1 1.3 2.5 2.3 5.2 2.9 8.1.6 2.9.9 5.8.9 8.8 0 4.1-.5 8.6-1.4 13.4-.9 4.8-2.2 9.2-4 13.1-1.7 3.9-3.9 7.7-6.4 11.1-2.5 3.5-5.4 6.5-8.7 9.1-3.3 2.6-6.9 4.6-10.8 6.1s-8.1 2.2-12.7 2.2c-1.5 0-3.1-.1-4.6-.3-1.6-.2-3.1-.5-4.6-.9-1.5-.4-2.9-.8-4.2-1.3-1.3-.5-2.5-1-3.5-1.5-.4-.1-.7-.3-1-.5l-.6-.6c-.1-.2-.2-.6-.2-.9v-1.4c0-5.4.1-10.9.4-16.6s.8-11.5 1.7-17.4c.8-6 2-11.2 3.6-15.8 1.6-4.6 3.7-8.8 6.3-12.7.6-.9 2.7-1.4 6.2-1.4 2.8 0 4.8 1 6 3-1.5 2-2.8 4.3-3.8 6.7-1 2.5-1.9 4.9-2.5 7.3-.7 2.4-1.3 5-1.7 7.8-.9 5.5-1.3 8.2-1.3 8.3.1.1-.3 3.2-1.1 9.4-.3 2.1-.6 4-.8 5.6-.2 1.6-.3 3-.4 4.2-.1 1.2-.1 2.4-.1 3.5 0 1.2 0 2.2.1 3 .1.8.3 1.5.6 2s.8.8 1.4 1c.6.2 1.5.3 2.6.3 3.3 0 6.4-.6 9.3-1.9 2.9-1.3 5.6-3 8.1-5.2s4.7-4.7 6.7-7.5c2-2.9 3.6-6.2 5-9.9 1.4-3.8 2.5-7.3 3.2-10.6.7-3.3 1.1-6.5 1.1-9.5 0-3.8-.6-7.1-1.9-10.1-1.2-3-3-5.5-5.2-7.6-2.2-2.1-4.9-3.6-8-4.7-3.1-1.1-6.6-1.6-10.3-1.6-2.7 0-5.4.2-8.1.5-2.7.3-5.2.8-7.5 1.5s-4.3 1.6-6.1 2.6c-1.7 1.1-3.1 2.3-3.9 3.8-2.4 3.7-4.3 6.6-5.9 8.6-1.5 2-2.8 3-3.9 3-1.4 0-2.1-1.6-2.1-4.9 0-3.2.4-6.1 1.2-8.6s2-4.8 3.5-6.8C6.2 9.1 8 7.4 10 6c2-1.4 4.3-2.5 6.7-3.4 2.4-.9 5-1.6 7.7-2 2.7-.4 5.5-.6 8.4-.6z"/><path class="text e" d="M97.2 84.8c-3 0-5.7-.6-8-1.7s-4.2-2.6-5.7-4.5-2.7-4.1-3.4-6.6c-.7-2.6-1.1-5.2-1.1-8 0-1.8.3-3.9 1-6.4.7-2.5 1.4-4.7 2.1-6.6.7-1.9 1.6-3.8 2.7-5.5 1.1-1.8 2.4-3.3 3.9-4.6s3.1-2.4 5-3.2c1.8-.8 3.9-1.2 6.1-1.2 1.8 0 3.5.3 5.1.9 1.6.6 2.9 1.4 4.1 2.5 1.2 1.1 2.1 2.3 2.7 3.8.7 1.5 1 3.2 1 5 0 2-.7 4.2-2 6.6-1.3 2.5-2.9 4.6-4.6 6.3-1.8 1.8-3.9 3.3-6.3 4.7-2.4 1.4-5.1 2.4-7.9 3.2.5.9 1 1.6 1.4 2.1.5.6 1 1 1.4 1.3.5.3 1 .5 1.5.7s1.1.2 1.7.2c2 0 4-.4 6.2-1.1 2.2-.8 4.3-1.7 6.3-2.9s4-2.4 5.8-3.7c1.8-1.4 3.4-2.6 4.6-3.8l6.3 6.4c-2.9 3.1-5.9 5.7-9.1 8.1-1.4 1-2.9 2-4.5 3s-3.3 1.8-5.1 2.6c-1.8.8-3.6 1.4-5.5 1.8-1.8.3-3.7.6-5.7.6zm-6.5-23.3c1.2 0 2.5-.3 3.8-.9 1.4-.6 2.7-1.3 3.9-2.3 1.2-.9 2.4-2.2 3.5-3.7s1.7-2.8 1.7-3.9c0-1.4-.3-2.6-.8-3.5-.5-.9-1.2-1.4-2-1.4-1.4 0-2.6.3-3.6.8s-1.8 1.2-2.5 2-1.2 1.7-1.6 2.8c-.4 1-.9 2.3-1.4 3.8-.5 1.5-.8 2.8-.9 3.8-.1 1-.1 1.8-.1 2.5z"/><path class="text s" d="M116.3 66.3c1.8-1.6 3.3-2.9 4.4-3.9 1.1-1.1 2.3-2.3 3.4-3.7 1.1-1.4 2-2.5 2.7-3.4.7-.9 1.5-1.9 2.4-3.2.9-1.2 2-2.7 3.3-4.5 1.3-1.8 3-4 5.1-6.6.4-.6.9-1.2 1.4-1.7.5-.6 1.1-1.1 1.7-1.5.6-.4 1.3-.8 2.1-1.1.8-.3 1.6-.4 2.6-.4 1.6 0 2.8.2 3.6.5.8.3 1.5.8 1.9 1.3.4.5.6 1 .7 1.6.1.5.1 1 .1 1.4 0 .8-.3 1.7-.9 2.6-.6 1-1.3 1.9-2.1 2.8-.7.9-1.5 1.7-2.1 2.4-.7.7-1.1 1.3-1.1 1.7 0 1 .1 1.9.2 2.8.1.8.3 1.7.6 2.5.2.8.5 1.7.8 2.6.3.9.5 2 .8 3.1.2 1.2.3 2.8.1 4.9-.2 2.1-.3 4.2-.3 6.3 1.2-.8 2.4-1.5 3.8-2.1 1.4-.6 2.8-1.3 4.2-2 1.5-.7 3-1.5 4.5-2.3 1.5-.8 3.1-1.9 4.7-3v11.1c-2 1.5-4.4 2.9-7 4.2-2.7 1.3-5.4 2.5-8.4 3.5-2.9 1-5.9 1.8-8.9 2.4s-5.8.9-8.5.9c-1.9 0-3.7-.2-5.4-.5-1.7-.3-3.1-.9-4.4-1.6-1.3-.7-2.3-1.7-3.1-2.9-.8-1.2-1.3-2.6-1.4-4.3-.5.1-.9.2-1.3.2h-2.8c-.5 0-.8-.2-1.2-.4-.3-.2-.6-.6-.8-1-.2-.5-.3-1.2-.3-2s.2-1.5.6-2.2c.4-.7.8-1.3 1.4-1.8.5-.5 1-1 1.6-1.4.6-.7 1-1 1.3-1.3zm6.1 6.4c.4 0 .8.2 1.3.7l1.6 1.6c.6.6 1.3 1.1 2.1 1.6s1.7.7 2.8.7c1.3 0 2.3-.2 3.1-.6.8-.4 1.5-1 2-1.7s.8-1.5 1-2.5c.2-.9.3-1.9.3-2.9 0-.9-.1-1.8-.2-2.7-.1-.9-.1-2.1 0-3.4s.1-2.4-.1-3.2c-.2-.7-.4-1.4-.6-1.9l-13.3 14.3z"/><path class="text i" d="M189.4 74.4c-1.2 1.1-2.6 2.2-4.4 3.4-1.7 1.2-3.6 2.3-5.6 3.4-2 1-4.1 1.9-6.2 2.6s-4.1 1-6 1c-1.7 0-3.1-.2-4.3-.7-1.2-.5-2.1-1.1-2.8-2-.7-.8-1.2-1.9-1.5-3.1-.3-1.2-.5-2.6-.5-4 0-2.1.2-4.4.7-7.2.9-5.7 1.5-8.8 1.8-9.5.4-1.4 1.3-4.5 2.7-9.2 1.2-3.9 2-6.4 2.3-7.6.2-.8.6-1.6 1.3-2.2.7-.6 1.4-1.1 2.3-1.5.8-.4 1.7-.7 2.6-.8.9-.2 1.7-.3 2.5-.3 1.3 0 2.3.3 2.7.8.5.5.7 1.2.7 2 0 .7-.2 1.7-.5 3s-.7 2.8-1.1 4.5c-.4 1.7-1.1 3.8-1.9 6.5-.8 2.6-1.4 4.9-1.7 6.7-.3 1.9-.7 3.7-1.2 5.5-.5 1.8-.7 3.5-.7 5s.2 2.6.5 3.5c.3.9 1 1.3 2 1.3 1.2 0 2.5-.4 3.9-1.2 1.4-.8 2.9-1.8 4.3-3 1.5-1.2 2.9-2.4 4.3-3.6 1.4-1.2 2.6-2.3 3.7-3.2v9.9zm-21.8-51.3c0-.8.2-1.6.5-2.6s.9-1.8 1.6-2.7c.7-.8 1.7-1.5 2.9-2.1s2.7-.9 4.6-.9c1.1 0 2.2.1 3.2.4 1 .3 1.9.7 2.6 1.2.7.5 1.3 1.3 1.8 2.1s.7 1.9.7 3.2c0 1.1-.2 2.2-.5 3.3-.4 1.1-.9 2-1.7 2.8-.8.8-1.8 1.5-3 2s-2.6.8-4.3.8c-2.9 0-5-.7-6.3-2-1.4-1.4-2.1-3.2-2.1-5.5z"/><path class="text g" d="M191.6 129.5c-1.4-.4-2.7-.9-3.9-1.7-1.2-.8-2.1-1.8-2.9-3.2s-1.2-3-1.3-4.8c-.3-3.4.7-7 2.8-10.9 1.2-2.1 2.1-3.6 2.6-4.5.5-.8 1.2-2 2.3-3.6 1.1-1.5 2.1-2.9 3.2-4.2 2.3-2.6 4.2-4.6 5.6-6.2 1.5-1.5 3.2-3.2 5.3-5l1-5.8c-3.6 3.4-7.2 5.2-10.6 5.2-2.5 0-4.9-.8-7-2.3-2.1-1.5-3.7-3.4-4.8-5.7-2-4.1-2-8.8-.1-14.3 1.7-5.1 3.4-9.3 5.1-12.6 1.7-3.3 4-6.2 6.7-8.6 4-3.5 7.8-5.3 11.6-5.3 1.7 0 2.9.5 3.7 1.4.1.1.2.3.4.6s.3.5.4.5l.4.4c.2.2.4.3.5.4.2 0 .4.1.6.2.3.1.6.2.9.2h3.3c1.5 0 2.5.4 3 1.3.2.4.4.8.6 1.4.4 1 .4 4.4.1 10-.1 1.8-.5 3.9-1.2 6.6-.7 2.6-1.2 5.5-1.4 8.7-.2 3.2-.6 7.3-1.1 12.4.9-.6 2-1.2 3-2 3.8-2.9 8.2-8.3 13-16.1l3.2 10.8c-.9 1.8-2.5 3.9-4.8 6.2-2.3 2.3-4.3 4.1-6 5.4-.3.2-.5.3-.7.4-3.1 2-5.4 3.5-6.8 4.4-.9.6-1.5 1.6-1.8 3.2-.3 1.5-.7 4.4-1.1 8.6-.2 1.2-.3 2.1-.4 2.8-.2 1.5-.4 2.9-.6 4.4-.2 1.4-.5 3.1-1 4.9-.5 1.8-1 3.5-1.6 5-.6 1.5-1.4 3-2.4 4.5s-2.1 2.8-3.3 3.8c-1.2 1-2.7 1.9-4.4 2.5-1.7.6-3.6 1-5.7 1-1.4.2-3 0-4.4-.4zm7.1-24.4c-2.2 3.6-4 7.2-5.3 11-1.1 3.1-.5 4.6 1.7 4.6.8 0 1.5-.1 2.1-.3.6-.2 1.2-.5 1.7-1s1-1 1.4-1.6.8-1.4 1.2-2.5c.4-1.1.8-2.2 1.2-3.2.4-1.1.8-2.5 1.3-4.2.3-.9.5-2 .6-3.1.1-1.1.3-2.5.5-4.2.2-1.7.3-2.7.4-3.2-2.3 1.5-4.6 4.1-6.8 7.7zm-2.9-31.7c.8 1.4 1.8 2.1 3.1 2.1 2.2 0 4.1-1.8 5.5-5.3 1.1-2.8 1.8-5.6 1.9-8.4l3.7-16.3c-3.8 0-7.1 2.5-10 7.6-3.1 5.4-4.8 9.1-5.1 11-.6 4.1-.3 7.2.9 9.3z"/><path class="text n" d="M233.4 74.6c0-2.1.1-4.6.4-7.4.3-2.8.6-5.9 1-9.3s.8-6.4 1.3-9.1c.5-2.7 1-5 1.4-6.9.4-1.5 1-2.8 2.1-3.8 1-1 2.4-1.5 4.2-1.5s3 .5 3.7 1.6 1 2.5 1 4.3c0 .5 0 1.1-.1 2s-.2 1.7-.4 2.7c-.1 1-.3 2-.5 3.1s-.3 2.3-.5 3.6c-.1 1.4-.3 2.4-.4 3-.1.7-.1 1.1-.1 1.3h1c.2-.4.5-.9.9-1.7.4-.8.9-1.9 1.5-3.4s1.1-2.8 1.8-4c.6-1.2 1.2-2.3 1.8-3.3.6-1.1 1.1-2 1.5-2.8.5-.8.8-1.4 1-1.8 1-1.8 2.2-3 3.6-3.6 1.3-.7 2.8-1 4.4-1s2.9.7 3.9 2.1c1 1.4 1.4 3.3 1.4 5.7 0 .4-.1 1-.2 1.8s-.3 1.9-.6 3-.5 2.7-.8 4.5c-.3 1.9-.5 3.5-.8 5s-.4 2.9-.6 4.3c-.1 1.4-.2 2.8-.2 4 0 2 .3 3.7.8 5 .5 1.3 1.3 2 2.4 2 .4 0 .9-.1 1.7-.4 1.1-.4 1.8-.7 2.1-1 1.4-1.1 2.2-1.6 2.2-1.6.1 0 1.2-.6 3.3-2 2.6-1.7 5.7-3.7 9.3-6.1v10.9l-2.4 1.9c-.2.2-1.7 1-4.6 2.5-4.1 2.2-6.7 3.5-7.8 4-2.5 1.1-4.1 1.8-4.7 2-1.6.5-3.3.8-5.1.8s-3.3-1.3-4.5-3.9-1.8-6.4-1.8-11.4c0-2 .1-4.1.4-6.3.3-2.3.6-4.7 1-7.3h-.8l-12.8 25.4c-.7 1.4-1.4 2.3-2.2 2.7-.8.5-1.8.7-2.8.7-1.3 0-2.4-.3-3.2-.9-.8-.6-1.4-1.3-1.9-2.3-.4-1-.7-2.1-.9-3.3s-.4-2.5-.4-3.8z"/><path class="text e" d="M297.1 84.8c-3 0-5.7-.6-8-1.7s-4.2-2.6-5.7-4.5-2.7-4.1-3.4-6.6-1.1-5.1-1.1-7.9c0-1.8.3-3.9 1-6.4.7-2.5 1.4-4.7 2.1-6.6.7-1.9 1.6-3.8 2.7-5.5 1.1-1.8 2.4-3.3 3.9-4.6s3.1-2.4 5-3.2c1.8-.8 3.9-1.2 6.1-1.2 1.8 0 3.5.3 5.1.9 1.6.6 2.9 1.4 4.1 2.5 1.2 1.1 2.1 2.3 2.7 3.8.7 1.5 1 3.2 1 5 0 2-.7 4.2-2 6.6s-2.9 4.6-4.6 6.3c-1.8 1.8-3.9 3.3-6.3 4.7-2.4 1.4-5.1 2.4-7.9 3.2.5.9 1 1.6 1.4 2.1.5.6 1 1 1.4 1.3.5.3 1 .5 1.5.7.5.1 1.1.2 1.7.2 2 0 4-.4 6.2-1.1 2.2-.8 4.3-1.7 6.3-2.9s4-2.4 5.8-3.7 3.4-2.6 4.6-3.8l6.3 6.4c-2.9 3.1-5.9 5.7-9.1 8.1-1.4 1-2.9 2-4.5 3s-3.3 1.8-5.1 2.6-3.6 1.4-5.5 1.8c-1.8.2-3.7.5-5.7.5zm-6.5-23.3c1.2 0 2.5-.3 3.8-.9s2.7-1.3 3.9-2.3c1.2-.9 2.4-2.2 3.5-3.7s1.7-2.8 1.7-3.9c0-1.4-.3-2.6-.8-3.5-.5-.9-1.2-1.4-2-1.4-1.4 0-2.6.3-3.6.8s-1.8 1.2-2.5 2-1.2 1.7-1.6 2.8c-.4 1-.9 2.3-1.4 3.8-.5 1.5-.8 2.8-.9 3.8-.1 1-.1 1.8-.1 2.5z"/><path class="text r" d="M317.6 74.6c0-1.4.1-3.1.2-5 .2-1.9.4-3.9.7-6 .3-2.1.6-4.3 1-6.5s.9-4.5 1.4-7 1.1-4.6 1.5-6.2c.4-1.7.8-3 1.3-4.1.3-.7.5-1.3.8-1.7.3-.4.6-.8.9-1s.8-.4 1.3-.5c.5-.1 1.1-.1 1.9-.1.8 0 1.5 0 2 .1s.8.3 1 .6c.2.3.4.8.4 1.3s.1 1.4.1 2.4c0 1.2-.1 2.9-.2 5.1-.2 2.2-.2 4.2-.1 5.8h.5c.7-1.3 1.5-3 2.4-5.1 1-2.1 2-3.9 3.1-5.3s2.3-2.6 3.7-3.5c1.4-1 2.9-1.4 4.7-1.4.6 0 1.2.1 1.8.3.6.2 1.1.5 1.5.9s.8.9 1 1.4c.3.6.4 1.2.4 1.9 0 .6-.1 1.3-.2 2.3-.2 1-.4 2.3-.8 3.9s-.6 2.9-.8 3.9c-.2 1-.2 1.9-.2 2.6 0 1.2.1 2.1.3 2.9.2.8.5 1.4.9 1.9s.8.8 1.3 1c.5.2 1 .3 1.5.3 1.5 0 3-.3 4.5-1 1.6-.7 3-1.4 4.3-2.2 1.5-.9 3-2 4.5-3.2l-.7 11.4c-.8.6-1.8 1.2-2.9 1.9s-2.2 1.3-3.4 1.9c-1.2.6-2.5 1.1-3.8 1.5-1.3.4-2.7.6-4 .6-2.4 0-4.4-.5-5.9-1.5s-2.7-2.3-3.6-3.9-1.5-3.4-2-5.4c-.4-2-.8-4-1-6.1h-.9l-8.7 24.4c-.5 1.3-.9 2.3-1.3 3.1-.4.8-.8 1.5-1.2 2-.4.5-.9.9-1.4 1.1-.5.2-1 .3-1.6.3-1.3 0-2.4-.3-3.2-.9-.8-.6-1.4-1.3-1.9-2.3-.4-1-.7-2.1-.9-3.3s-.2-2.3-.2-3.6z"/><path class="text full-stop" d="M386.2 76.3v.9c0 .5-.1 1-.3 1.6-.2.6-.5 1.3-.8 2-.4.7-.9 1.3-1.6 1.9-.7.6-1.5 1.1-2.6 1.5-1 .4-2.3.6-3.8.6-1.2 0-2.3-.1-3.3-.4s-1.8-.7-2.5-1.3c-.7-.6-1.2-1.3-1.6-2.2s-.6-2-.6-3.3c0-1.1.2-2.1.5-3.1s.9-1.9 1.6-2.7c.7-.8 1.6-1.4 2.8-1.9 1.1-.5 2.5-.7 4.1-.7 2.7 0 4.8.6 6.2 1.9 1.2 1.1 1.9 2.8 1.9 5.2z"/></svg>